<svg width="16" height="15" viewBox="0 0 16 15" fill="none" xmlns="http://www.w3.org/2000/svg">
<path fill-rule="evenodd" clip-rule="evenodd" d="M5.50219 2.70285C5.50219 4.19618 4.27109 5.40657 2.7511 5.40657C1.23199 5.40657 0 4.19618 0 2.70285C0 1.21039 1.23199 0 2.7511 0C4.27109 0 5.50219 1.21039 5.50219 2.70285ZM14.7948 1.51866C15.4596 1.51866 16.0001 2.04963 16.0001 2.70285C16.0001 3.35695 15.4596 3.88791 14.7948 3.88791H9.53434C8.86857 3.88791 8.32812 3.35695 8.32812 2.70285C8.32812 2.04963 8.86857 1.51866 9.53434 1.51866H14.7948ZM1.20622 10.3663H6.46663C7.1324 10.3663 7.67285 10.8973 7.67285 11.5514C7.67285 12.2046 7.1324 12.7364 6.46663 12.7364H1.20622C0.540441 12.7364 0 12.2046 0 11.5514C0 10.8973 0.540441 10.3663 1.20622 10.3663ZM13.2494 14.2221C14.7694 14.2221 16.0005 13.0117 16.0005 11.5193C16.0005 10.0259 14.7694 8.81554 13.2494 8.81554C11.7303 8.81554 10.4983 10.0259 10.4983 11.5193C10.4983 13.0117 11.7303 14.2221 13.2494 14.2221Z" fill="black"/>
</svg>
