<svg width="16" height="16" viewBox="0 0 16 16" fill="none" xmlns="http://www.w3.org/2000/svg">
<path d="M8 0C3.58077 0 0 3.58077 0 8C0 12.4192 3.58077 16 8 16C12.4192 16 16 12.4192 16 8C16 3.58077 12.4192 0 8 0ZM7.83462 11.6923C7.38077 11.6923 7.01154 11.3462 7.01154 10.9C7.01154 10.4577 7.38077 10.1077 7.83462 10.1077C8.29231 10.1077 8.66154 10.4538 8.66154 10.9C8.66154 11.3462 8.29615 11.6923 7.83462 11.6923ZM9.38077 7.96538C8.71154 8.35385 8.48462 8.63846 8.48462 9.13077V9.43462H7.15L7.13846 9.10385C7.07308 8.31154 7.35 7.81923 8.04615 7.41154C8.69615 7.02308 8.96923 6.77692 8.96923 6.3C8.96923 5.82308 8.50769 5.47308 7.93462 5.47308C7.35385 5.47308 6.93462 5.85 6.90385 6.41923H5.53846C5.56538 5.18077 6.48077 4.30385 8.02692 4.30385C9.46923 4.30385 10.4615 5.10385 10.4615 6.25385C10.4615 7.01923 10.0923 7.54615 9.38077 7.96538Z" fill="#F1C34E"/>
</svg>
