<svg width="14" height="16" viewBox="0 0 14 16" fill="none" xmlns="http://www.w3.org/2000/svg">
<path fill-rule="evenodd" clip-rule="evenodd" d="M11.2183 4.31664V5.54331C12.5962 5.9734 13.6002 7.22074 13.6002 8.71056V12.6601C13.6002 14.5045 12.0711 15.9998 10.1859 15.9998H3.4152C1.52925 15.9998 0.000162125 14.5045 0.000162125 12.6601V8.71056C0.000162125 7.22074 1.00492 5.9734 2.38199 5.54331V4.31664C2.39012 1.93166 4.36549 -0.000167847 6.78797 -0.000167847C9.24296 -0.000167847 11.2183 1.93166 11.2183 4.31664ZM6.804 1.39143C8.45421 1.39143 9.79551 2.70317 9.79551 4.317V5.37116H3.80436V4.3011C3.81249 2.69522 5.15379 1.39143 6.804 1.39143ZM7.51138 11.5637C7.51138 11.9532 7.19434 12.2632 6.79602 12.2632C6.40582 12.2632 6.08879 11.9532 6.08879 11.5637V9.79878C6.08879 9.41718 6.40582 9.10713 6.79602 9.10713C7.19434 9.10713 7.51138 9.41718 7.51138 9.79878V11.5637Z" fill="black"/>
</svg>
